# xmcd CD database file
# Copyright (C) 1995-1998 Ti Kan
#
# Track frame offsets:
#	150
#	16967
#	33744
#	48754
#	62904
#	77678
#	92569
#	109813
#	124268
#	141800
#	158558
#	175051
#	190226
#
# Disc length: 2816 seconds
#
# Revision: 1
# Processed by: cddbd v1.4PL0 Copyright (c) Steve Scherf et al.
# Submitted via: CDex 1.30Release
#
DISCID=a50afe0d
DTITLE=Craig Byrne - My Girl
DYEAR=2001
DGENRE=Country
TTITLE0=Angel Things
TTITLE1=Lying Next To You
TTITLE2=Kissing Distance
TTITLE3=Hasn't Been A Bad Life
TTITLE4=Light At The End Of The Tunnel
TTITLE5=Good Enough For Me
TTITLE6=I Knew I loved You
TTITLE7=Lazy
TTITLE8=I Haven't Got The Heart
TTITLE9=If You're Thinking You Want A Stranger
TTITLE10=That Was Before I Met You
TTITLE11=My Girl
TTITLE12=No Place For A Woman
EXTD=YEAR: 2001 ID3G:   2
EXTT0=
EXTT1=
EXTT2=
EXTT3=
EXTT4=
EXTT5=
EXTT6=
EXTT7=
EXTT8=
EXTT9=
EXTT10=
EXTT11=
EXTT12=
PLAYORDER=
